<svg width="512" height="512" xmlns="http://www.w3.org/2000/svg" class="svg-inline--fa fa-list fa-w-16">

 <g>
  <title>background</title>
  <rect fill="none" id="canvas_background" height="602" width="802" y="-1" x="-1"/>
 </g>
 <g>
  <title>Layer 1</title>
  <path id="svg_1" d="m80,368l-64,0a16,16 0 0 0 -16,16l0,64a16,16 0 0 0 16,16l64,0a16,16 0 0 0 16,-16l0,-64a16,16 0 0 0 -16,-16zm0,-320l-64,0a16,16 0 0 0 -16,16l0,64a16,16 0 0 0 16,16l64,0a16,16 0 0 0 16,-16l0,-64a16,16 0 0 0 -16,-16zm0,160l-64,0a16,16 0 0 0 -16,16l0,64a16,16 0 0 0 16,16l64,0a16,16 0 0 0 16,-16l0,-64a16,16 0 0 0 -16,-16zm416,176l-320,0a16,16 0 0 0 -16,16l0,32a16,16 0 0 0 16,16l320,0a16,16 0 0 0 16,-16l0,-32a16,16 0 0 0 -16,-16zm0,-320l-320,0a16,16 0 0 0 -16,16l0,32a16,16 0 0 0 16,16l320,0a16,16 0 0 0 16,-16l0,-32a16,16 0 0 0 -16,-16zm0,160l-320,0a16,16 0 0 0 -16,16l0,32a16,16 0 0 0 16,16l320,0a16,16 0 0 0 16,-16l0,-32a16,16 0 0 0 -16,-16z" fill="#404040"/>
 </g>
</svg>