<svg width="448" height="512" xmlns="http://www.w3.org/2000/svg" class="svg-inline--fa fa-plus-square fa-w-14">

 <g>
  <title>background</title>
  <rect fill="none" id="canvas_background" height="602" width="802" y="-1" x="-1"/>
 </g>
 <g>
  <title>Layer 1</title>
  <path id="svg_1" d="m400,32l-352,0c-26.5,0 -48,21.5 -48,48l0,352c0,26.5 21.5,48 48,48l352,0c26.5,0 48,-21.5 48,-48l0,-352c0,-26.5 -21.5,-48 -48,-48zm-32,252c0,6.6 -5.4,12 -12,12l-92,0l0,92c0,6.6 -5.4,12 -12,12l-56,0c-6.6,0 -12,-5.4 -12,-12l0,-92l-92,0c-6.6,0 -12,-5.4 -12,-12l0,-56c0,-6.6 5.4,-12 12,-12l92,0l0,-92c0,-6.6 5.4,-12 12,-12l56,0c6.6,0 12,5.4 12,12l0,92l92,0c6.6,0 12,5.4 12,12l0,56z" fill="#404040"/>
 </g>
</svg>